<svg width="443" height="443" viewBox="0 0 443 443" xmlns="http://www.w3.org/2000/svg"><title>Rectangle</title><g id="Page-1" fill="none" fill-rule="evenodd"><g id="Lines" transform="translate(-5 38)" stroke="#FFF" stroke-width="10"><path d="M.007 64.698c102.827-7.908 139.528 89.733 202.756 80.939 63.228-8.794 156.663-85.99 250.24-145.631v48.13C332.476 125.455 272.837 184.423 215.37 177.754 157.9 171.084 114.45 107.274 68.363 99.75 22.276 92.225.007 104.076.007 104.076V64.698z" id="Path-2" class="uuEIJbZI_0"/><path d="M0 152.21v46.457c5.31-3.292 52.917-46.622 103.836-45.553 50.92 1.07 112.835 66.226 169.566 77.35 56.73 11.122 152.392-67.952 179.59-88.687V94.431c-40.343 21.53-129.885 105.725-192.642 105.725-62.757 0-124.636-80.719-180.019-79.173C24.95 122.53 1.306 151 .001 152.21z" id="Path-3" class="uuEIJbZI_1"/><path d="M0 295.756v-51.223c11.084-6.44 86.176-71.38 144.599-66.944 58.422 4.434 129.778 82.405 180.251 78.82 50.474-3.584 100.684-52.364 128.15-65.4v47.083c-31.009 26.676-64.718 49.842-114.491 49.842-49.773 0-111.26-85.298-177.418-80.798-66.159 4.5-116.779 68.35-161.09 88.62z" id="Path-4" class="uuEIJbZI_2"/><path d="M288.57 268.264c54.592 34.179 56.109 41.127 94.23 43.526 38.121 2.399 63.369-25.169 70.2-26.783v48.312c-5.119 3.069-61.647 29.805-128.577-16.797-40.993-28.542-61.407-65.345-83.003-80.526 4.27 3.126 31.91 22.224 47.15 32.268z" id="Path-5" class="uuEIJbZI_3"/></g></g><style>.uuEIJbZI_0{stroke-dasharray:1116 1118;stroke-dashoffset:1117;animation:uuEIJbZI_draw_0 3500ms linear 0ms infinite,uuEIJbZI_fade 3500ms linear 0ms infinite}.uuEIJbZI_1{stroke-dasharray:1113 1115;stroke-dashoffset:1114;animation:uuEIJbZI_draw_1 3500ms linear 0ms infinite,uuEIJbZI_fade 3500ms linear 0ms infinite}.uuEIJbZI_2{stroke-dasharray:1118 1120;stroke-dashoffset:1119;animation:uuEIJbZI_draw_2 3500ms linear 0ms infinite,uuEIJbZI_fade 3500ms linear 0ms infinite}.uuEIJbZI_3{stroke-dasharray:540 542;stroke-dashoffset:541;animation:uuEIJbZI_draw_3 3500ms linear 0ms infinite,uuEIJbZI_fade 3500ms linear 0ms infinite}@keyframes uuEIJbZI_draw{to{stroke-dashoffset:0}}@keyframes uuEIJbZI_fade{0%,92.85714285714286%{stroke-opacity:1}to{stroke-opacity:0}}@keyframes uuEIJbZI_draw_0{0%{stroke-dashoffset:1117}57.14285714285714%,to{stroke-dashoffset:0}}@keyframes uuEIJbZI_draw_1{9.523809523809524%{stroke-dashoffset:1114}66.66666666666667%,to{stroke-dashoffset:0}}@keyframes uuEIJbZI_draw_2{19.047619047619047%{stroke-dashoffset:1119}76.19047619047619%,to{stroke-dashoffset:0}}@keyframes uuEIJbZI_draw_3{28.57142857142857%{stroke-dashoffset:541}85.71428571428571%,to{stroke-dashoffset:0}}</style></svg>